<?xml version="1.0" standalone="no"?>
<!DOCTYPE svg PUBLIC "-//W3C//DTD SVG 20010904//EN"
 "http://www.w3.org/TR/2001/REC-SVG-20010904/DTD/svg10.dtd">
<svg version="1.0" xmlns="http://www.w3.org/2000/svg"
 width="700.000000pt" height="700.000000pt" viewBox="0 0 700.000000 700.000000"
 preserveAspectRatio="xMidYMid meet">
<metadata>
Created by potrace 1.14, written by Peter Selinger 2001-2017
</metadata>
<g transform="translate(0.000000,700.000000) scale(0.100000,-0.100000)"
fill="#000000" stroke="none">
<path d="M4302 6837 c-52 -20 -103 -66 -125 -116 -20 -44 -21 -65 -22 -471 0
-234 3 -443 8 -465 29 -142 195 -215 320 -142 54 32 92 84 104 142 5 22 8 231
7 465 0 405 -2 427 -21 470 -11 25 -31 55 -45 67 -59 55 -155 76 -226 50z"/>
<path d="M2715 6174 c-88 -30 -148 -110 -149 -197 0 -100 4 -105 330 -432 167
-168 322 -317 344 -331 32 -21 52 -26 102 -27 158 -1 259 136 210 287 -14 43
-51 84 -327 360 -182 183 -325 319 -347 329 -49 23 -115 28 -163 11z"/>
<path d="M5911 6178 c-18 -5 -45 -17 -59 -26 -56 -36 -633 -626 -648 -661 -74
-177 82 -350 267 -295 43 13 80 46 359 326 172 171 321 328 332 349 39 76 24
184 -35 247 -49 53 -146 80 -216 60z"/>
<path d="M4415 5011 c-56 -25 -651 -621 -676 -676 -24 -52 -24 -126 0 -178 20
-42 361 -388 410 -415 13 -8 48 -16 77 -19 103 -11 113 -4 456 339 322 322
347 353 348 432 0 90 -13 110 -208 308 -114 115 -200 194 -225 206 -54 25
-132 27 -182 3z"/>
<path d="M2064 4584 c-80 -20 -134 -74 -154 -156 -26 -103 19 -200 115 -248
l49 -24 436 -1 c467 -1 480 0 547 51 61 46 93 147 73 225 -15 56 -63 114 -116
139 -47 23 -50 23 -477 24 -276 1 -446 -3 -473 -10z"/>
<path d="M5783 4587 c-138 -28 -213 -196 -141 -318 31 -53 87 -95 143 -106 22
-5 231 -8 465 -7 479 1 480 1 544 75 74 87 74 202 -1 288 -62 73 -70 75 -548
75 -233 1 -440 -3 -462 -7z"/>
<path d="M3117 3706 c-22 -8 -50 -25 -64 -38 -14 -12 -649 -646 -1411 -1408
-979 -979 -1390 -1397 -1403 -1425 -21 -46 -24 -102 -8 -160 9 -32 47 -76 193
-223 99 -101 196 -192 214 -204 47 -29 132 -35 188 -13 39 15 256 228 1454
1426 1533 1534 1442 1435 1436 1546 -2 26 -10 63 -20 80 -21 42 -366 387 -407
409 -44 22 -126 27 -172 10z"/>
<path d="M5337 3555 c-97 -33 -151 -110 -150 -213 1 -50 6 -70 27 -102 15 -22
163 -177 331 -344 335 -334 346 -343 447 -334 104 9 184 87 195 192 11 106 5
114 -344 462 -208 208 -326 319 -351 330 -50 21 -111 24 -155 9z"/>
<path d="M4319 3131 c-68 -21 -130 -78 -150 -139 -10 -27 -13 -152 -13 -477
l0 -440 24 -50 c60 -119 200 -159 312 -89 46 29 84 85 95 139 13 64 8 885 -6
919 -20 49 -50 85 -95 111 -46 27 -123 39 -167 26z"/>
</g>
</svg>
